# xmcd
# Track frame offsets:
# 150
# 11422
# 22985
# 34409
# 46739
# 59053
# 70890
# 86544
# 99658
# 111233
# 121123
# 131816
# 143604
# 154600
# 166839
# 179276
# 193789
# 203518
#
# Disc length: 2854 seconds
# Revision: 0
# Processed by: cddbd v1.5.1PL2 Copyright (c) Steve Scherf et al.
# Submitted via: VisiTrax 2.10.0.248 - For more info visit www.synapsa.com
#
DISCID=ee0b2412
DTITLE=Various Artist - Stars Of Country
DYEAR=2004
DGENRE=General Country
TTITLE0=Just Out Of Reach - Patsey Cline
TTITLE1=Me And Bobby McGee - Kenny Rogers
TTITLE2=There She Goes - Jerry Wallace
TTITLE3=Crazy Dreams - Conwat Twitty
TTITLE4=Shelter Of Your Arms - Willie Nelson
TTITLE5=You Can't Put The City In A Country Girl - Barbara Fairchild
TTITLE6=Your Cheatin' Heart - Razzy Bailey
TTITLE7=Daddy - Donna Fargo
TTITLE8=Before The Next Teardrop Falls - Jeannie C Riley
TTITLE9=Born To Lose - Johnny Cash
TTITLE10=Please Help Me I'm Falling - Hank Locklin
TTITLE11=Jeannie C Riley - Country Girl - Jeannie C Riley
TTITLE12=Stop The World (And Let Me Off) - Patsey Cline
TTITLE13=Look What They've Done To My Song - Billie Joe Spears
TTITLE14=Wasted Nights And Wasted Days (live) - Freddy Fender
TTITLE15=Faithless Love - Lynn Anderson
TTITLE16=From A Jack To A King - Ned Miller
TTITLE17=Burning Memories - Waylon Jennings
EXTD=
EXTT0=
EXTT1=
EXTT2=
EXTT3=
EXTT4=
EXTT5=
EXTT6=
EXTT7=
EXTT8=
EXTT9=
EXTT10=
EXTT11=
EXTT12=
EXTT13=
EXTT14=
EXTT15=
EXTT16=
EXTT17=
PLAYORDER=
